<?xml version="1.0" standalone="no"?>
<!DOCTYPE svg PUBLIC "-//W3C//DTD SVG 20010904//EN"
 "http://www.w3.org/TR/2001/REC-SVG-20010904/DTD/svg10.dtd">
<svg version="1.0" xmlns="http://www.w3.org/2000/svg"
 width="500.000000pt" height="500.000000pt" viewBox="0 0 500.000000 500.000000"
 preserveAspectRatio="xMidYMid meet">
<metadata>
Created by potrace 1.14, written by Peter Selinger 2001-2017
</metadata>
<g transform="translate(0.000000,500.000000) scale(0.100000,-0.100000)"
fill="#000000" stroke="none">
<path d="M2385 4993 c-418 -25 -789 -132 -1118 -321 -698 -402 -1142 -1067
-1249 -1872 -19 -143 -16 -499 6 -645 132 -902 715 -1643 1556 -1978 473 -189
1029 -226 1521 -102 966 244 1685 1020 1859 2006 28 155 38 497 21 673 -82
835 -596 1586 -1349 1970 -313 159 -619 242 -982 266 -141 9 -161 10 -265 3z
m243 -1859 c238 -48 436 -236 499 -474 39 -148 16 -330 -60 -475 -46 -86 -174
-212 -264 -258 -437 -226 -953 82 -953 569 0 414 373 720 778 638z m-1020
-884 c7 -30 33 -95 56 -145 167 -352 532 -560 920 -525 159 15 293 63 431 155
174 115 307 296 366 498 l23 77 644 0 645 0 -7 -72 c-4 -40 -15 -116 -26 -169
-85 -414 -280 -790 -569 -1092 -355 -370 -824 -605 -1333 -668 -152 -18 -514
-7 -658 21 -213 41 -398 104 -595 202 -415 208 -754 544 -968 961 -122 236
-192 468 -232 770 l-6 47 647 -2 648 -3 14 -55z"/>
<path d="M2427 2809 c-131 -31 -232 -147 -244 -280 -14 -155 80 -290 232 -334
260 -76 489 207 364 450 -42 81 -112 136 -206 160 -63 17 -90 17 -146 4z"/>
</g>
</svg>
